<svg width="180" height="101" viewBox="0 0 180 101" fill="none" xmlns="http://www.w3.org/2000/svg">
<g clip-path="url(#clip0_2134_591)">
<path d="M4.76611 100.66C4.76611 100.783 4.89305 100.883 5.05112 100.883H179.715C179.873 100.883 180 100.783 180 100.66C180 100.537 179.873 100.438 179.715 100.438H5.05112C4.89305 100.438 4.76611 100.537 4.76611 100.66Z" fill="#3F3D58"/>
<path d="M87.5577 32.8724H6.74773C3.66597 32.8724 1.15771 30.3642 1.15771 27.2824C1.15771 24.2006 3.66597 21.6924 6.74773 21.6924H87.5577C90.6395 21.6924 93.1477 24.2006 93.1477 27.2824C93.1477 30.3642 90.6395 32.8724 87.5577 32.8724ZM6.74773 22.3834C4.04601 22.3834 1.84869 24.5807 1.84869 27.2824C1.84869 29.9841 4.04601 32.1814 6.74773 32.1814H87.5577C90.2594 32.1814 92.4568 29.9841 92.4568 27.2824C92.4568 24.5807 90.2594 22.3834 87.5577 22.3834H6.74773Z" fill="#E2E3E4"/>
<path d="M87.5576 98.2916H6.7476C3.75911 98.2916 1.33032 95.8628 1.33032 92.8743C1.33032 89.8858 3.75911 87.457 6.7476 87.457H87.5576C90.5461 87.457 92.9748 89.8858 92.9748 92.8743C92.9748 95.8628 90.5461 98.2916 87.5576 98.2916Z" fill="#2A3BD8"/>
<path d="M61.0756 10.8345H5.41727C2.42879 10.8345 0 8.40576 0 5.41727C0 2.42879 2.42879 0 5.41727 0H61.0756C64.0641 0 66.4929 2.42879 66.4929 5.41727C66.4929 8.40576 64.0641 10.8345 61.0756 10.8345Z" fill="#E2E3E4"/>
<path d="M87.5577 54.7357H6.74773C3.66597 54.7357 1.15771 52.2275 1.15771 49.1457C1.15771 46.0639 3.66597 43.5557 6.74773 43.5557H87.5577C90.6395 43.5557 93.1477 46.0639 93.1477 49.1457C93.1477 52.2275 90.6395 54.7357 87.5577 54.7357ZM6.74773 44.2466C4.04601 44.2466 1.84869 46.444 1.84869 49.1457C1.84869 51.8474 4.04601 54.0447 6.74773 54.0447H87.5577C90.2594 54.0447 92.4568 51.8474 92.4568 49.1457C92.4568 46.444 90.2594 44.2466 87.5577 44.2466H6.74773Z" fill="#E2E3E4"/>
<path d="M87.5577 76.6019H6.74773C3.66597 76.6019 1.15771 74.0937 1.15771 71.0119C1.15771 67.9301 3.66597 65.4219 6.74773 65.4219H87.5577C90.6395 65.4219 93.1477 67.9301 93.1477 71.0119C93.1477 74.0937 90.6395 76.6019 87.5577 76.6019ZM6.74773 66.1129C4.04601 66.1129 1.84869 68.3102 1.84869 71.0119C1.84869 73.7136 4.04601 75.9109 6.74773 75.9109H87.5577C90.2594 75.9109 92.4568 73.7136 92.4568 71.0119C92.4568 68.3102 90.2594 66.1129 87.5577 66.1129H6.74773Z" fill="#E2E3E4"/>
<path d="M3.96975 17.6787H25.1483C25.6527 17.6787 26.0638 18.0864 26.0638 18.5943C26.0638 19.0987 25.6527 19.5098 25.1483 19.5098H3.96975C3.46533 19.5098 3.0542 19.1021 3.0542 18.5943C3.0542 18.0898 3.46533 17.6787 3.96975 17.6787Z" fill="#E2E3E4"/>
<path d="M3.96975 40.0586H25.1483C25.6527 40.0586 26.0638 40.4663 26.0638 40.9707C26.0638 41.4751 25.6527 41.8862 25.1483 41.8862H3.96975C3.46533 41.8862 3.0542 41.4786 3.0542 40.9741C3.0542 40.4697 3.46533 40.0586 3.96975 40.0586Z" fill="#E2E3E4"/>
<path d="M3.96975 62.4443H25.1483C25.6527 62.4443 26.0638 62.852 26.0638 63.3599C26.0638 63.8643 25.6527 64.272 25.1483 64.272H3.96975C3.46533 64.272 3.0542 63.8643 3.0542 63.3564C3.0542 62.852 3.46533 62.4443 3.96975 62.4443Z" fill="#E2E3E4"/>
<path d="M125.689 56.8881C127.309 65.5426 135.639 71.2466 144.297 69.6228C146.916 69.1322 149.265 68.0267 151.221 66.4823L170.914 87.723C172.119 89.0221 174.175 89.0186 175.377 87.7127C176.5 86.4931 176.438 84.5998 175.236 83.4562L154.195 63.404C156.724 59.9699 157.878 55.5372 157.032 51.0148C155.412 42.3603 147.082 36.6562 138.424 38.28C129.766 39.9038 124.065 48.2301 125.689 56.8881ZM129.089 56.2524C127.821 49.4739 132.284 42.951 139.063 41.6831C145.841 40.4152 152.364 44.8789 153.632 51.6574C154.9 58.4359 150.437 64.9587 143.658 66.2267C136.88 67.4946 130.357 63.0309 129.089 56.2524Z" fill="#2A3BD8"/>
</g>
<defs>
<clipPath id="clip0_2134_591">
<rect width="180" height="100.883" fill="white"/>
</clipPath>
</defs>
</svg>
