<svg width="579" height="230" viewBox="0 0 579 230" fill="none" xmlns="http://www.w3.org/2000/svg">
<g id="Group 3">
<g id="Ellipse 1" opacity="0.22" filter="url(#filter0_dd_2049_1675)">
<ellipse cx="286.485" cy="199.796" rx="250.773" ry="22.2039" fill="#D9D9D9"/>
</g>
<g id="Group 2">
<g id="Group 1">
<g id="Frame">
<g id="humaaans/standing-1">
<g id="humaaan-11">
<g id="Head/Front/Airy">
<g id="Head">
<path id="Vector" fill-rule="evenodd" clip-rule="evenodd" d="M66.4872 38.6334C64.2563 36.5841 62.5922 33.9413 62.4269 30.7713C61.9504 21.6378 74.8006 22.0821 77.8139 26.3515C80.8271 30.6209 81.9592 42.25 78.8905 43.456C77.6666 43.937 74.8763 43.4695 71.9334 42.1544L75.1474 54.1111L64.9918 55.358L66.4872 38.6334Z" fill="#915B3C"/>
</g>
<path id="hair" fill-rule="evenodd" clip-rule="evenodd" d="M71.3786 21.7946C70.0131 21.7395 66.3907 22.0311 65.7261 22.1128C65.3014 22.1649 64.853 22.3185 64.5536 21.9594C64.3084 21.6653 64.3175 21.1159 64.2105 20.7529C64.0863 20.3311 63.9327 19.9186 63.7781 19.5073C63.3381 18.337 62.7559 17.2436 62.0061 16.242C60.5992 14.3629 58.7074 12.988 56.4513 12.3298C53.9599 11.6031 51.2535 11.699 48.7334 12.2178C46.0366 12.7731 43.6812 13.975 41.2132 15.137C38.8614 16.2443 36.3334 16.8769 33.7217 16.7979C31.0904 16.7183 28.9671 15.5581 26.6256 14.497C24.2285 13.4107 21.5707 12.8341 18.9595 13.3623C16.522 13.8554 14.3786 15.15 12.5103 16.7572C10.7623 18.261 9.37897 19.9819 8.75608 22.2413C8.08597 24.6718 8.39862 27.2109 10.2187 29.0627C12.8568 31.7469 17.173 31.9948 20.6763 31.4873C22.7026 31.1939 24.6525 30.578 26.4879 29.6679C28.9355 28.4539 30.9589 26.6574 33.2002 25.1262C34.2521 24.4077 35.3545 23.7882 36.5292 23.2953C37.669 22.8168 38.8133 22.5211 39.9701 23.1031C41.1937 23.7189 42.2983 24.3358 43.6501 24.6493C44.947 24.9501 46.2929 25.0422 47.6141 24.8696C50.1847 24.5338 52.6227 23.4206 55.0558 22.5768C57.0399 21.8888 59.1667 21.1847 61.296 21.3505C62.1845 21.4197 63.4953 21.6268 63.9191 22.4893C58.7663 24.0915 57.4967 30.8633 59.5699 35.4654C60.6888 37.9494 65.8796 40.3763 67.587 38.7886C68.6687 37.7828 67.8093 36.7421 67.2512 36.054C66.1826 34.7363 65.6518 32.9402 67.1829 31.7434C68.5035 30.7112 70.2527 32.5626 70.2807 32.5568C70.6688 32.4778 73.82 30.1469 75.81 27.0658C78.1284 26.9197 78.2912 25.3591 77.5893 24.1855C76.8873 23.0118 73.2652 21.871 71.3786 21.7946Z" fill="#191847"/>
</g>
<g id="Bottom/Standing/Sweatpants">
<path id="Leg" fill-rule="evenodd" clip-rule="evenodd" d="M68.4686 90.2143L84.0852 144.028L91.4305 184.432H98.803L91.4437 90.2143H68.4686Z" fill="#784931"/>
<path id="Leg_2" fill-rule="evenodd" clip-rule="evenodd" d="M61.4503 90.2143C62.54 118.17 62.1102 133.418 61.8663 135.958C61.6224 138.498 60.2379 155.509 50.8032 185.285H58.4712C70.9659 156.72 75.3277 139.709 76.7607 135.958C78.1938 132.207 82.4262 116.959 88.6054 90.2143H61.4503Z" fill="#915B3C"/>
<path id="Pant" fill-rule="evenodd" clip-rule="evenodd" d="M68.1332 90.2143C72.1954 108.732 79.2211 138.29 89.2105 178.89H99.9936C100.79 137.218 97.402 109.791 91.5347 90.2143H68.1332Z" fill="#69A1AC"/>
<path id="Pant_2" fill-rule="evenodd" clip-rule="evenodd" d="M61.3959 90.2143C62.463 118.17 59.6973 145.712 51.1302 179.325H62.6351C75.1528 151.186 84.1246 123.78 90.2562 90.2143H61.3959Z" fill="#C5CFD6"/>
<g id="Accessories/Shoe/Flat-Simple">
<path id="Shoe" fill-rule="evenodd" clip-rule="evenodd" d="M49.7103 190.827L50.1334 184.006C52.6105 184.73 55.7132 184.446 59.4415 183.153C63.4502 185.993 68.4967 187.932 74.5809 188.97C75.0451 189.049 75.3572 189.49 75.278 189.954C75.2729 189.984 75.2661 190.014 75.2578 190.043L74.6729 192.106H59.4415H50.5565L49.7103 190.827Z" fill="#191847"/>
</g>
<g id="Accessories/Shoe/Flat-Simple_2">
<path id="Shoe_2" fill-rule="evenodd" clip-rule="evenodd" d="M89.7848 190.827L90.2079 184.006C92.685 184.73 95.7877 184.446 99.516 183.153C103.525 185.993 108.571 187.932 114.655 188.97C115.12 189.049 115.432 189.49 115.353 189.954C115.347 189.984 115.341 190.014 115.332 190.043L114.747 192.106H99.516H90.631L89.7848 190.827Z" fill="#191847"/>
</g>
</g>
<g id="Body/Hoodie">
<path id="Skin" fill-rule="evenodd" clip-rule="evenodd" d="M103.675 80.5362L118.802 88.0091C122.607 88.3487 125.856 89.0331 128.551 90.0621C129.219 90.4852 130.102 91.4248 127.682 91.6622C125.262 91.8996 122.728 92.2581 122.542 93.1305C122.356 94.0029 123.972 94.722 123.5 95.9381C123.186 96.7489 120.764 95.282 116.237 91.5375L102.005 88.3765L103.675 80.5362ZM52.3147 89.9423L61.0945 88.4298C58.7608 106.873 57.4724 116.668 57.2293 117.814C56.6823 120.393 59.3847 123.698 60.6113 125.513C57.9739 127.299 57.4423 122.5 54.1265 124.818C51.1 126.933 49.0821 130.154 44.8585 128.476C44.3392 128.269 43.6342 127.272 44.7242 126.203C47.4399 123.54 51.2378 119.048 51.6242 117.722C52.151 115.913 52.3812 106.653 52.3147 89.9423Z" fill="#915B3C"/>
<path id="Coat-Back" fill-rule="evenodd" clip-rule="evenodd" d="M70.7567 48.7303L74.2774 47.4674C89.7993 56.7285 99.2737 78.1077 117.873 87.0385L114.767 92.6653C85.4983 94.1694 73.5908 68.1539 70.7567 48.7303Z" fill="#2535AE"/>
<path id="Shirt" fill-rule="evenodd" clip-rule="evenodd" d="M62.9752 97.145C77.5321 94.5782 88.2398 92.6901 95.0984 91.4808C96.5663 91.222 95.916 89.1512 95.5152 88.1191C90.8897 76.2072 78.9839 64.5868 75.8856 47.0158L66.3636 47.1967C60.873 60.8741 60.8985 76.5174 62.9752 97.145Z" fill="#DDE3E9"/>
<path id="Coat-Front" fill-rule="evenodd" clip-rule="evenodd" d="M56.9302 61.3526C55.5163 61.2031 54.2915 60.4888 53.2559 59.2097C48.7917 53.6959 49.4215 50.1157 52.8458 48.3716C56.2701 46.6275 59.8994 48.3364 65.6659 47.3196C65.9796 47.2643 66.2703 47.2333 66.5381 47.2267L69.468 46.8807C82.7638 73.6189 88.3773 92.0325 86.3084 102.122L61.0249 106.58C60.1428 110.337 59.2275 113.529 58.2791 116.155L51.3898 117.37C47.0449 96.5197 48.8917 77.8474 56.9302 61.3526Z" fill="#2A3BD8"/>
<path id="Shade" fill-rule="evenodd" clip-rule="evenodd" d="M63.9763 91.1232C65.9446 97.6361 68.0884 102.237 70.4077 104.925L61.0249 106.58C62.0538 102.197 63.0376 97.0449 63.9763 91.1232Z" fill="black" fill-opacity="0.1"/>
</g>
</g>
</g>
</g>
<g id="Frame_2">
<g id="humaaans/standing-2">
<g id="humaaan-8">
<g id="Head/Front/Short-Beard">
<g id="Head_2">
<path id="Vector_2" fill-rule="evenodd" clip-rule="evenodd" d="M206.183 45.9068C204.218 43.6009 202.889 40.775 203.111 37.6085C203.751 28.485 216.451 30.492 218.922 35.0968C221.392 39.7016 221.099 51.3821 217.906 52.2051C216.633 52.5333 213.92 51.7293 211.159 50.0653L212.892 62.3246H202.66L206.183 45.9068Z" fill="#57331F"/>
</g>
<path id="Hair" fill-rule="evenodd" clip-rule="evenodd" d="M211.671 38.6162C212.062 44.0719 213.099 46.7998 214.779 46.7998C217.3 46.7998 219.438 45.1995 220.544 45.1995C221.351 45.1995 221.171 46.2085 220.636 46.9566C220.195 47.5738 218.048 48.1687 218.048 49.1256C218.048 50.0824 219.745 49.3422 219.745 49.9097C219.745 50.8484 220.043 52.6133 218.414 52.6133C216.765 52.6133 212.037 52.0124 211.227 49.5653C210.704 47.986 210.366 44.7133 210.213 39.7473C210.113 39.7354 210.011 39.7293 209.908 39.7293C208.495 39.7293 207.35 40.8746 207.35 42.2873C207.35 43.0045 207.645 43.6527 208.12 44.1172C207.529 44.9526 206.865 45.8253 206.105 46.7258C203.25 45.0126 201.131 39.9975 203.922 35.1797C204.694 32.8196 206.441 31.5589 208.504 30.9735C210.175 30.2745 211.91 30.1956 213.375 30.6147C216.246 30.861 218.809 31.7364 219.536 32.2562C219.536 34.9742 219.009 35.7806 214.511 35.7095C213.405 36.2932 212.556 37.2984 211.671 38.6162Z" fill="#191847"/>
</g>
<g id="Bottom/Standing/Baggy-Pants">
<path id="Leg_3" fill-rule="evenodd" clip-rule="evenodd" d="M201.84 97.6042L222.764 150.565L236.799 195.339H242.34L220.885 97.6042L201.84 97.6042Z" fill="#3D2216"/>
<path id="Leg_4" fill-rule="evenodd" clip-rule="evenodd" d="M197.626 97.6042C197.403 116.215 194.154 141.272 193.635 142.432C193.288 143.205 181.34 153.04 157.79 171.937L161.607 176.022C189.394 159.82 203.931 150.639 205.216 148.478C207.145 145.236 213.425 115.409 218.466 97.6042H197.626Z" fill="#57331F"/>
<g id="Accessories/Shoe/Flat-Sneaker">
<path id="shoe" fill-rule="evenodd" clip-rule="evenodd" d="M157.279 170.574C155.997 171.027 155.114 171.456 154.63 171.863C154.041 172.357 153.264 173.176 152.299 174.32C152.872 175.004 158.024 181.144 167.755 192.74C169.739 191.891 170.362 190.898 169.622 189.761C168.883 188.624 168.278 187.671 167.808 186.904L164.44 175.14C164.376 174.914 164.14 174.783 163.913 174.847C163.909 174.848 163.906 174.85 163.902 174.851L162.105 175.421C160.858 174.84 159.985 174.251 159.484 173.654C159.077 173.169 158.711 172.335 158.386 171.152C158.261 170.698 157.791 170.431 157.337 170.556C157.318 170.561 157.298 170.567 157.279 170.574Z" fill="#E4E4E4"/>
</g>
<g id="Accessories/Shoe/Flat-Sneaker_2">
<path id="shoe_2" fill-rule="evenodd" clip-rule="evenodd" d="M234.529 193.272C234.053 194.546 233.814 195.498 233.814 196.13C233.814 196.899 233.942 198.021 234.198 199.496C235.09 199.496 243.105 199.496 258.244 199.496C258.869 197.43 258.508 196.315 257.162 196.15C255.815 195.986 254.697 195.837 253.807 195.704L242.63 190.722C242.415 190.626 242.163 190.722 242.067 190.937C242.066 190.941 242.064 190.945 242.063 190.949L241.344 192.691C240.098 193.273 239.085 193.563 238.306 193.563C237.673 193.563 236.799 193.308 235.683 192.796C235.255 192.6 234.749 192.788 234.553 193.216C234.544 193.235 234.537 193.253 234.529 193.272Z" fill="#E4E4E4"/>
</g>
<path id="Pant_3" fill-rule="evenodd" clip-rule="evenodd" d="M215.908 190.728L242.257 187.868L222.73 97.6042H199.13L215.908 190.728Z" fill="#69A1AC"/>
<path id="Pant_4" fill-rule="evenodd" clip-rule="evenodd" d="M163.24 165.347L180.523 185.805C198.727 165.923 209.34 152.95 212.362 146.886C215.384 140.822 218.101 124.394 220.512 97.6042H193.943C192.626 121.173 191.738 133.506 191.28 134.603C190.821 135.699 181.475 145.948 163.24 165.347Z" fill="#89C5CC"/>
</g>
<g id="Body/Turtle-Neck">
<path id="Skin_2" fill-rule="evenodd" clip-rule="evenodd" d="M239.131 92.3174L251.208 104.099C254.722 105.598 257.601 107.253 259.846 109.064C260.351 109.673 260.9 110.839 258.525 110.317C256.151 109.795 253.629 109.353 253.183 110.125C252.737 110.898 254.052 112.081 253.227 113.092C252.677 113.766 250.828 111.622 247.679 106.662L235.12 99.2579L239.131 92.3174ZM180.075 81.6547L189.411 81.6897C182.301 104.726 178.526 116.787 178.088 117.874C177.101 120.318 179.189 124.042 180.082 126.043C177.174 127.344 177.484 122.525 173.816 124.232C170.468 125.789 167.922 128.611 164.054 126.225C163.578 125.931 163.057 124.827 164.316 123.963C167.453 121.812 171.973 118.048 172.584 116.809C173.417 115.119 175.914 103.401 180.075 81.6547Z" fill="#57331F"/>
<path id="Clothes-Back" fill-rule="evenodd" clip-rule="evenodd" d="M208.522 55.1724L212.209 54.5401C218.016 75.0685 247.854 89.0614 249.686 96.7354C250.357 99.5497 248.332 100.972 249.378 101.83L244.586 105.337C243.775 104.391 242.043 106.122 238.427 104.911C234.811 103.7 208.522 79.4797 208.522 55.1724Z" fill="#191847"/>
<path id="Clothes-Front" fill-rule="evenodd" clip-rule="evenodd" d="M214.723 57.9016C214.298 85.0796 230.009 92.0123 226.51 102.915C223.62 111.918 195.959 121.597 191.173 112.771C189.235 109.199 188.356 104.878 188.256 100.181C187.033 103.79 186.066 106.897 185.354 109.501C184.126 113.995 179.366 114.709 179.366 116.44L173.095 114.709C173.52 112.357 170.564 111.212 171.357 105.958C174.908 82.4178 184.451 65.354 199.985 54.7669L200.145 52.4688C200.211 51.5293 201.026 50.8209 201.965 50.8866L213.448 51.6895C214.388 51.7552 215.096 52.5701 215.03 53.5096L214.723 57.9016Z" fill="#2F3676"/>
</g>
</g>
</g>
</g>
<g id="Frame_3">
<g id="humaaans/standing-20">
<g id="humaaan-10">
<g id="Head/Front/Hijab2">
<g id="Head_3">
<path id="Vector_3" fill-rule="evenodd" clip-rule="evenodd" d="M135.462 45.907C133.498 43.6011 132.168 40.7752 132.39 37.6087C133.03 28.4852 145.731 30.4922 148.201 35.097C150.672 39.7018 150.378 51.3823 147.185 52.2053C145.912 52.5335 143.199 51.7295 140.439 50.0655L142.171 62.3248H131.94L135.462 45.907Z" fill="#B28B67"/>
</g>
<path id="Hijab" d="M146.846 33.5234C147.074 33.6 146.846 32.6194 146.301 32.2608C144.63 31.161 139.654 29.5334 136.251 30.2397C133.972 30.7129 131.129 31.9005 129.309 33.4146C127.667 34.7794 126.174 37.1857 125.593 39.2996C124.983 41.5193 124.752 44.6079 125.593 46.5444C126.594 48.8508 130.14 51.3364 130.234 51.6665C130.341 52.0432 129.922 53.5149 129.615 55.0656C129.309 56.6164 129.448 60.5647 129.615 61.2087C129.883 62.2378 131.315 62.7438 131.94 62.8182C135.393 63.2297 137.896 67.5168 138.938 68.6137C143.575 73.2696 146.812 75.2944 148.648 74.6881C149.131 74.5285 148.407 68.7434 147.923 66.2638C147.44 63.7842 142.702 59.3593 142.399 57.901C142.22 57.042 142.19 55.5467 142.171 55.4785C141.724 52.3977 141.801 52.1473 141.15 50.8919C140.498 49.6365 139.992 49.5629 140.149 49.1972C140.915 47.4104 143.376 41.9434 143.935 40.1557C144.601 38.0251 144.286 38.7249 144.972 36.6016C145.276 35.6613 145.663 33.1257 146.846 33.5234Z" fill="#89C5CC"/>
<g id="Mask group">
<mask id="mask0_2049_1675" style="mask-type:luminance" maskUnits="userSpaceOnUse" x="125" y="30" width="24" height="45">
<g id="Group">
<path id="Vector_4" d="M146.846 33.5234C147.074 33.6 146.846 32.6194 146.301 32.2608C144.63 31.161 139.654 29.5334 136.251 30.2397C133.972 30.7129 131.129 31.9005 129.309 33.4146C127.667 34.7794 126.174 37.1857 125.593 39.2996C124.983 41.5193 124.752 44.6079 125.593 46.5444C126.594 48.8508 130.14 51.3364 130.234 51.6665C130.341 52.0432 129.922 53.5149 129.615 55.0656C129.309 56.6164 129.448 60.5647 129.615 61.2087C129.883 62.2378 131.315 62.7438 131.94 62.8182C135.393 63.2297 137.896 67.5168 138.938 68.6137C143.575 73.2696 146.812 75.2944 148.648 74.6881C149.131 74.5285 148.407 68.7434 147.923 66.2638C147.44 63.7842 142.702 59.3593 142.399 57.901C142.22 57.042 142.19 55.5467 142.171 55.4785C141.724 52.3977 141.801 52.1473 141.15 50.8919C140.498 49.6365 139.992 49.5629 140.149 49.1972C140.915 47.4104 143.376 41.9434 143.935 40.1557C144.601 38.0251 144.286 38.7249 144.972 36.6016C145.276 35.6613 145.663 33.1257 146.846 33.5234Z" fill="white"/>
</g>
</mask>
<g mask="url(#mask0_2049_1675)">
<path id="Shade_2" fill-rule="evenodd" clip-rule="evenodd" d="M138.043 33.7609C137.295 36.1338 137.134 37.4004 137.295 40.6427H136.928C136.243 37.583 136.853 34.7026 137.582 33.7609H138.043ZM128.01 39.8847C129.403 43.2664 130.039 45.2633 133.931 47.9998L133.63 48.2102C129.767 46.0207 128.642 43.4089 127.717 40.0256L128.01 39.8847ZM133.736 36.4434C134.369 41.2433 134.554 43.9851 137.851 49.2355L137.5 49.3427C134.107 44.7712 133.569 41.04 133.408 36.4698L133.736 36.4434ZM130.093 50.7015L130.393 50.3366C134.489 51.6195 134.033 54.2681 139.192 56.9505L138.761 57.2117C134.244 55.3475 133.188 51.3491 130.093 50.7015Z" fill="black" fill-opacity="0.2"/>
</g>
</g>
</g>
<g id="Bottom/Standing/Sprint">
<path id="Leg_5" fill-rule="evenodd" clip-rule="evenodd" d="M123.719 97.6043C124.488 108.096 174.01 138.985 174.299 139.852C174.427 140.237 169.289 152.413 158.885 176.38L163.214 178.062C179.172 152.679 186.742 138.636 185.922 135.931C184.749 132.059 171.941 119.32 147.499 97.7158L123.719 97.6043Z" fill="#B28B67"/>
<path id="Pant_5" fill-rule="evenodd" clip-rule="evenodd" d="M160.024 170.967L167.092 173.54C181.995 156.725 187.836 142.85 186.771 135.781C186.061 131.069 173.298 118.352 148.481 97.63L123.213 97.63C124.075 121.927 169.975 139.944 170.589 140.979C171.203 142.015 165.161 152.156 160.024 170.967Z" fill="#2F3676"/>
<g id="Accessories/Shoe/Flat-Sneaker_3">
<path id="shoe_3" fill-rule="evenodd" clip-rule="evenodd" d="M157.292 175.553C156.408 176.587 155.858 177.4 155.642 177.994C155.379 178.717 155.116 179.815 154.852 181.288C155.69 181.593 163.222 184.335 177.448 189.512C178.741 187.785 178.784 186.614 177.575 185.998C176.366 185.383 175.366 184.861 174.575 184.432L165.777 175.927C165.607 175.764 165.338 175.768 165.174 175.937C165.171 175.94 165.168 175.943 165.166 175.946L163.895 177.338C162.525 177.458 161.473 177.385 160.741 177.119C160.146 176.902 159.412 176.363 158.539 175.501C158.204 175.17 157.664 175.173 157.333 175.509C157.319 175.523 157.305 175.538 157.292 175.553Z" fill="#E4E4E4"/>
</g>
<path id="Leg_6" fill-rule="evenodd" clip-rule="evenodd" d="M129.413 97.6042L107.353 150.565L85.6707 195.339H90.7862L146.754 97.6042H129.413Z" fill="#997659"/>
<g id="Accessories/Shoe/Flat-Sneaker_4">
<path id="shoe_4" fill-rule="evenodd" clip-rule="evenodd" d="M85.3647 193.272C84.8877 194.546 84.6492 195.498 84.6492 196.13C84.6492 196.899 84.7773 198.021 85.0335 199.496C85.9253 199.496 93.9405 199.496 109.079 199.496C109.704 197.43 109.343 196.315 107.997 196.15C106.651 195.986 105.532 195.837 104.642 195.704L93.4656 190.722C93.2506 190.626 92.9985 190.722 92.9027 190.938C92.901 190.941 92.8994 190.945 92.8979 190.949L92.1795 192.691C90.9332 193.273 89.9205 193.564 89.1413 193.564C88.5082 193.564 87.6339 193.308 86.5184 192.796C86.0904 192.6 85.5843 192.788 85.388 193.216C85.3796 193.235 85.3718 193.253 85.3647 193.272Z" fill="#E4E4E4"/>
</g>
<path id="Pant_6" fill-rule="evenodd" clip-rule="evenodd" d="M87.6286 186.038L98.9953 188.17C107.784 175.249 144.565 122.268 148.598 97.6042H123.293C109.826 115.434 96.0061 172.903 87.6286 186.038Z" fill="#5C63AB"/>
</g>
<g id="Body/Pointing-Up">
<path id="Skin_3" fill-rule="evenodd" clip-rule="evenodd" d="M164.984 53.8972L181.144 49.0463C184.158 46.6997 187.002 44.9839 189.674 43.899C190.451 43.7527 191.738 43.8377 190.13 45.6616C188.522 47.4855 186.913 49.4763 187.372 50.2411C187.831 51.0059 189.504 50.4293 189.988 51.6408C190.311 52.4484 187.539 53.0269 181.674 53.3761L169.11 60.7704L164.984 53.8972ZM163.556 82.3874L177.156 92.3735C180.844 93.3688 183.925 94.607 186.4 96.0883C186.985 96.6209 187.691 97.6996 185.267 97.5132C182.842 97.3268 180.284 97.2397 179.95 98.0666C179.615 98.8935 181.082 99.8823 180.406 100.998C179.955 101.742 177.826 99.8768 174.017 95.403L160.55 89.8187L163.556 82.3874Z" fill="#B28B67"/>
<path id="Coat-Back_2" fill-rule="evenodd" clip-rule="evenodd" d="M142.434 55.4942C149.839 69.3027 160.548 79.8879 176.073 90.8916L170.195 97.5197C152.86 91.0779 143.712 87.1913 139.219 74.1451C138.092 70.8708 137.304 60.4328 136.628 54.9409L142.434 55.4942Z" fill="#2026A2"/>
<path id="Shirt_2" fill-rule="evenodd" clip-rule="evenodd" d="M121.731 101.5H154.558C147.122 78.8221 143.324 63.2572 143.162 54.8055C143.154 54.3747 142.359 53.6154 142.006 53.7149C139.432 54.442 136.677 54.1701 133.741 52.8992C125.959 65.4154 123.268 80.8255 121.731 101.5Z" fill="#F2F2F2"/>
<path id="Coat-Front_2" fill-rule="evenodd" clip-rule="evenodd" d="M136.543 52.9195C145.952 52.9965 161.219 54.7148 178.826 49.0623L180.564 57.7481C167.257 66.3065 153.783 72.9362 141.976 71.9947C147.103 93.9873 146.866 111.991 135.547 111.991C130.142 111.991 124.307 111.991 118.044 111.991C115.264 93.3081 122.57 67.4044 129.343 54.3388C129.602 53.8399 130.153 52.8993 131.45 52.8993C132.58 52.8993 134.276 52.8993 136.536 52.8993C136.538 52.906 136.54 52.9127 136.543 52.9195Z" fill="#2535AE"/>
</g>
</g>
</g>
</g>
<g id="Frame_4">
<g id="humaaans/standing-5">
<g id="humaaan-10_2">
<g id="Head/Front/Short-1">
<g id="Head_4">
<path id="Vector_5" fill-rule="evenodd" clip-rule="evenodd" d="M283.444 44.2717C281.48 41.9658 280.15 39.1399 280.372 35.9734C281.012 26.8498 293.713 28.8569 296.183 33.4617C298.654 38.0665 298.36 49.7469 295.167 50.5699C293.894 50.8981 291.181 50.0942 288.421 48.4301L290.153 60.6894H279.922L283.444 44.2717Z" fill="#B28B67"/>
</g>
<path id="Hair_2" fill-rule="evenodd" clip-rule="evenodd" d="M291.671 34.1296C290.282 34.9062 289.294 36.3616 288.104 38.2706C287.815 38.1567 287.499 38.0942 287.169 38.0942C285.756 38.0942 284.611 39.2394 284.611 40.6522C284.611 41.3693 284.906 42.0176 285.382 42.482C284.79 43.3175 284.127 44.1902 283.366 45.0907C280.53 43.3889 278.42 38.429 281.129 33.6409C283.459 24.0499 296.663 30.003 299.203 28.3854C299.758 31.8658 297.967 34.6721 291.671 34.1296Z" fill="#191847"/>
</g>
<g id="Bottom/Standing/Baggy-Pants_2">
<path id="Leg_7" fill-rule="evenodd" clip-rule="evenodd" d="M279.51 97.7009L300.434 150.662L314.469 195.436H320.011L298.555 97.7009L279.51 97.7009Z" fill="#997659"/>
<path id="Leg_8" fill-rule="evenodd" clip-rule="evenodd" d="M275.296 97.7009C275.073 116.312 271.824 141.368 271.305 142.528C270.958 143.302 259.01 153.137 235.46 172.034L239.277 176.119C267.064 159.917 281.601 150.736 282.886 148.575C284.815 145.333 291.095 115.506 296.136 97.7009H275.296Z" fill="#B28B67"/>
<g id="Accessories/Shoe/Flat-Sneaker_5">
<path id="shoe_5" fill-rule="evenodd" clip-rule="evenodd" d="M234.949 170.671C233.667 171.124 232.784 171.553 232.3 171.96C231.711 172.454 230.934 173.273 229.969 174.417C230.542 175.1 235.694 181.24 245.425 192.837C247.409 191.988 248.032 190.995 247.292 189.858C246.553 188.72 245.948 187.768 245.478 187.001L242.11 175.237C242.046 175.01 241.81 174.879 241.583 174.944C241.579 174.945 241.576 174.946 241.572 174.948L239.775 175.517C238.528 174.936 237.655 174.348 237.154 173.751C236.747 173.266 236.381 172.432 236.056 171.248C235.931 170.794 235.461 170.527 235.007 170.652C234.988 170.658 234.968 170.664 234.949 170.671Z" fill="#E4E4E4"/>
</g>
<g id="Accessories/Shoe/Flat-Sneaker_6">
<path id="shoe_6" fill-rule="evenodd" clip-rule="evenodd" d="M312.199 193.369C311.722 194.642 311.484 195.595 311.484 196.227C311.484 196.996 311.612 198.118 311.868 199.593C312.76 199.593 320.775 199.593 335.914 199.593C336.539 197.527 336.178 196.412 334.832 196.247C333.485 196.082 332.367 195.934 331.476 195.801L320.3 190.818C320.085 190.723 319.833 190.819 319.737 191.034C319.736 191.038 319.734 191.042 319.733 191.045L319.014 192.788C317.768 193.369 316.755 193.66 315.976 193.66C315.343 193.66 314.469 193.405 313.353 192.893C312.925 192.697 312.419 192.885 312.223 193.313C312.214 193.331 312.206 193.35 312.199 193.369Z" fill="#E4E4E4"/>
</g>
<path id="Pant_7" fill-rule="evenodd" clip-rule="evenodd" d="M293.578 190.824L319.927 187.965L300.4 97.7009H276.8L293.578 190.824Z" fill="#69A1AC"/>
<path id="Pant_8" fill-rule="evenodd" clip-rule="evenodd" d="M240.91 165.444L258.193 185.902C276.397 166.02 287.01 153.046 290.032 146.982C293.054 140.918 295.771 124.491 298.182 97.7009H271.613C270.296 121.27 269.408 133.603 268.95 134.699C268.491 135.796 259.145 146.044 240.91 165.444Z" fill="#89C5CC"/>
</g>
<g id="Body/Turtle-Neck_2">
<path id="Skin_4" fill-rule="evenodd" clip-rule="evenodd" d="M317.975 92.5473L330.504 104.691C334.149 106.236 337.136 107.942 339.465 109.809C339.988 110.437 340.558 111.639 338.095 111.101C335.631 110.563 333.015 110.107 332.552 110.903C332.089 111.699 333.454 112.919 332.598 113.961C332.027 114.656 330.109 112.446 326.842 107.333L313.813 99.7014L317.975 92.5473ZM256.707 81.5565L266.392 81.5927C259.015 105.337 255.1 117.77 254.645 118.89C253.621 121.41 255.787 125.248 256.713 127.31C253.697 128.651 254.018 123.685 250.213 125.444C246.74 127.049 244.098 129.958 240.085 127.498C239.592 127.196 239.051 126.057 240.357 125.167C243.612 122.95 248.301 119.07 248.935 117.792C249.799 116.051 252.389 103.972 256.707 81.5565Z" fill="#B28B67"/>
<path id="Clothes-Back_2" fill-rule="evenodd" clip-rule="evenodd" d="M286.219 54.2594L290.043 53.6076C296.068 74.7676 327.024 89.1911 328.924 97.1013C329.621 100.002 327.52 101.469 328.605 102.352L323.634 105.968C322.792 104.992 320.995 106.777 317.244 105.528C313.492 104.28 286.219 79.3146 286.219 54.2594Z" fill="#DB2721"/>
<path id="Clothes-Front_2" fill-rule="evenodd" clip-rule="evenodd" d="M292.652 57.0725C292.211 85.0868 308.511 92.2327 304.88 103.471C301.882 112.751 273.185 122.728 268.22 113.631C266.21 109.948 265.298 105.495 265.194 100.653C263.925 104.373 262.921 107.575 262.183 110.26C260.909 114.892 255.971 115.628 255.971 117.412L249.465 115.628C249.906 113.204 246.839 112.024 247.662 106.608C251.346 82.3431 261.246 64.7542 277.362 53.8414L277.532 51.4201C277.6 50.4813 278.414 49.7735 279.353 49.8372L291.393 50.6737C292.333 50.7375 293.041 51.552 292.976 52.4916C292.976 52.4916 292.976 52.4926 292.974 52.493L292.652 57.0725Z" fill="#FF4133"/>
</g>
</g>
</g>
</g>
<g id="Frame_5">
<g id="humaaans/standing-12">
<g id="A-Human/Standing">
<g id="Head/Front/Afro">
<path id="Hair-Back" fill-rule="evenodd" clip-rule="evenodd" d="M339.705 51.7966C344.377 51.7966 346.076 46.2032 348.73 43.1337C350.629 40.9375 353.87 41.5924 354.83 38.5178C357.242 30.7865 350.785 25.345 342.362 25.345C333.938 25.345 328.259 30.1174 327.032 37.2914C325.806 44.4655 331.281 51.7966 339.705 51.7966Z" fill="#191847"/>
<g id="Head_5">
<path id="Vector_6" fill-rule="evenodd" clip-rule="evenodd" d="M340.221 46.8025C338.337 44.5915 337.062 41.8818 337.275 38.8455C337.889 30.0972 350.067 32.0217 352.436 36.4371C354.805 40.8525 354.523 52.0525 351.462 52.8417C350.241 53.1564 347.64 52.3855 344.992 50.7899L346.654 62.545H336.843L340.221 46.8025Z" fill="#B28B67"/>
</g>
<path id="Hair_3" fill-rule="evenodd" clip-rule="evenodd" d="M344.357 41.1747C344 40.9861 343.592 40.879 343.158 40.879C341.768 40.879 340.641 41.9771 340.641 43.3318C340.641 43.8846 340.828 44.3948 341.145 44.805C340.549 45.7879 340.142 46.8207 340.008 47.8823C337.942 47.8823 330.398 40.0614 337.913 32.7032C345.428 25.345 356.288 35.8492 353.024 36.4618C351.148 36.8141 347.369 38.6053 344.357 41.1747Z" fill="#191847"/>
</g>
<g id="Bottom/Standing/Shorts">
<path id="Leg_9" fill-rule="evenodd" clip-rule="evenodd" d="M333.573 96.4745L348.956 146.766L356.408 189.535H362.251L354.376 96.4745H333.573Z" fill="#997659"/>
<path id="Leg_10" fill-rule="evenodd" clip-rule="evenodd" d="M328.07 96.4745C329.114 124.087 327.885 138.33 327.651 140.839C327.417 143.347 324.215 159.614 316.634 190.377L322.86 188.239C334.841 160.025 338.923 145.361 340.298 141.656C341.672 137.951 345.321 122.891 351.246 96.4745H328.07Z" fill="#B28B67"/>
<g id="Accessories/Shoe/Flat-Sneaker_7">
<path id="shoe_7" fill-rule="evenodd" clip-rule="evenodd" d="M316.681 188.208C316.223 189.429 315.995 190.342 315.995 190.948C315.995 191.685 316.118 192.761 316.363 194.175C317.218 194.175 324.904 194.175 339.42 194.175C340.019 192.195 339.673 191.125 338.382 190.967C337.091 190.809 336.019 190.667 335.165 190.539L324.449 185.762C324.242 185.67 324.001 185.763 323.909 185.969C323.907 185.972 323.906 185.976 323.904 185.98L323.215 187.651C322.02 188.208 321.049 188.487 320.302 188.487C319.695 188.487 318.857 188.242 317.787 187.751C317.377 187.563 316.891 187.743 316.703 188.154C316.695 188.172 316.688 188.19 316.681 188.208Z" fill="#E4E4E4"/>
</g>
<g id="Accessories/Shoe/Flat-Sneaker_8">
<path id="shoe_8" fill-rule="evenodd" clip-rule="evenodd" d="M355.107 188.208C354.65 189.429 354.421 190.342 354.421 190.948C354.421 191.685 354.544 192.761 354.79 194.175C355.645 194.175 363.33 194.175 377.846 194.175C378.445 192.195 378.099 191.125 376.808 190.967C375.518 190.809 374.445 190.667 373.591 190.539L362.875 185.762C362.669 185.67 362.427 185.763 362.335 185.969C362.333 185.972 362.332 185.976 362.33 185.98L361.642 187.651C360.447 188.208 359.476 188.487 358.728 188.487C358.121 188.487 357.283 188.242 356.213 187.751C355.803 187.563 355.318 187.743 355.129 188.154C355.121 188.172 355.114 188.19 355.107 188.208Z" fill="#E4E4E4"/>
</g>
<path id="Bottom" fill-rule="evenodd" clip-rule="evenodd" d="M331.529 96.4745L338.07 122.097H358.047L355.068 96.4745H331.529Z" fill="#69A1AC"/>
<path id="Bottom_2" fill-rule="evenodd" clip-rule="evenodd" d="M327.85 96.4745C325.698 102.925 325.289 111.466 326.623 122.097H347.01L352.616 96.4745H327.85Z" fill="#89C5CC"/>
</g>
<g id="Body/Jacket">
<path id="Skin_5" fill-rule="evenodd" clip-rule="evenodd" d="M369.565 89.984L381.145 101.281C384.514 102.718 387.275 104.305 389.427 106.042C389.911 106.626 390.438 107.744 388.161 107.244C385.884 106.743 383.466 106.319 383.038 107.06C382.61 107.8 383.871 108.935 383.08 109.904C382.553 110.55 380.78 108.495 377.76 103.739L365.718 96.6391L369.565 89.984ZM318.165 91.5772L326.707 91.6108C321.433 108.638 318.585 117.673 318.165 118.715C317.219 121.059 319.22 124.63 320.076 126.548C317.288 127.796 317.586 123.176 314.069 124.812C310.859 126.305 308.417 129.011 304.708 126.723C304.252 126.441 303.752 125.382 304.959 124.554C307.967 122.492 312.302 118.882 312.887 117.694C313.686 116.074 315.445 107.368 318.165 91.5772Z" fill="#B28B67"/>
<path id="Coat-Back_3" fill-rule="evenodd" clip-rule="evenodd" d="M342.442 55.7313L345.976 55.125C352.062 70.328 362.688 84.1419 377.852 96.5666L366.393 110.488C351.23 92.7974 341.884 74.545 342.442 55.7313Z" fill="#191847"/>
<path id="Shirt_3" fill-rule="evenodd" clip-rule="evenodd" d="M327.032 100.154H358.509C351.217 82.4225 347.57 67.3601 347.57 54.9664L338.075 53.5517C330.613 65.5531 328.506 80.3293 327.032 100.154Z" fill="#DDE3E9"/>
<path id="Coat-Front_3" fill-rule="evenodd" clip-rule="evenodd" d="M337.874 53.5584C337.876 53.5561 337.877 53.5539 337.878 53.5517H338.498C339.239 53.5772 340.369 53.6232 341.887 53.6897L344.181 60.2464C344.424 68.2405 345.841 84.3508 348.433 108.577H327.799C327.853 110.25 327.942 111.939 328.067 113.644H312.725C315.019 87.7527 323.4 67.722 337.867 53.5517L337.874 53.5584Z" fill="#2F3676"/>
<path id="Shade_3" fill-rule="evenodd" clip-rule="evenodd" d="M329.162 87.1677C329.749 97.5979 331.22 104.788 333.573 108.738H327.804C327.552 101.234 328.004 94.0438 329.162 87.1677Z" fill="black" fill-opacity="0.1"/>
<path id="Light" fill-rule="evenodd" clip-rule="evenodd" d="M332.392 96.0658L342.566 91.3358V96.0658H332.392Z" fill="white" fill-opacity="0.2"/>
</g>
</g>
</g>
</g>
</g>
<g id="Frame_6">
<g id="humaaans/standing-16">
<g id="humaaan-4">
<g id="Head/Front/Curly">
<g id="Head_6">
<path id="Vector_7" fill-rule="evenodd" clip-rule="evenodd" d="M498.829 43.3074C496.789 40.9124 495.408 37.9772 495.638 34.6883C496.303 25.2119 509.495 27.2966 512.061 32.0794C514.627 36.8623 514.322 48.9944 511.006 49.8492C509.683 50.1901 506.866 49.3551 503.998 47.6267L505.798 60.36H495.171L498.829 43.3074Z" fill="#B28B67"/>
</g>
<path id="hair_2" fill-rule="evenodd" clip-rule="evenodd" d="M516.769 25.449C516.549 24.6754 515.957 24.0131 515.159 23.8166C514.966 23.7689 514.766 23.7497 514.567 23.7577C514.496 23.7605 514.476 23.7811 514.442 23.7312C514.417 23.6942 514.417 23.6037 514.407 23.5602C514.375 23.4249 514.335 23.2913 514.286 23.1612C514.119 22.7174 513.839 22.3245 513.501 21.9936C512.868 21.3746 512.014 20.9473 511.126 20.87C510.64 20.8278 510.157 20.9067 509.698 21.0648C509.46 21.1466 509.23 21.2485 509.005 21.3612C508.937 21.3951 508.718 21.5612 508.65 21.5504C508.575 21.5385 508.424 21.3522 508.363 21.3055C507.61 20.7275 506.68 20.5002 505.741 20.507C504.682 20.515 503.662 20.5679 502.779 21.2136C502.592 21.3503 502.414 21.5 502.244 21.6576C502.155 21.7405 502.068 21.8266 501.986 21.9163C501.936 21.9703 501.888 22.0257 501.841 22.0825C501.762 22.1789 501.774 22.2105 501.664 22.1433C501.239 21.885 500.746 21.7642 500.25 21.8252C499.955 21.8614 499.668 21.9498 499.396 22.0663C499.303 22.1059 499.089 22.264 498.99 22.2656C498.892 22.2671 498.681 22.1205 498.58 22.0833C498.034 21.882 497.447 21.8324 496.874 21.9254C496.283 22.0214 495.702 22.2572 495.201 22.5831C494.96 22.7399 494.75 22.9136 494.581 23.1467C494.508 23.2473 494.442 23.3538 494.36 23.4471C494.311 23.5017 494.216 23.5578 494.19 23.627C494.205 23.5856 493.543 23.3303 493.481 23.314C493.148 23.2271 492.809 23.2447 492.483 23.352C491.87 23.5537 491.343 24.0059 490.91 24.4696C490.688 24.7078 490.493 24.971 490.328 25.2515C490.249 25.3859 490.176 25.524 490.11 25.6652C490.078 25.7335 490.057 25.8191 490.014 25.8807C489.96 25.96 489.923 25.9615 489.824 25.9961C489.323 26.1718 488.866 26.4692 488.517 26.8711C488.165 27.2777 487.937 27.7783 487.841 28.3056C487.835 28.3367 487.832 28.4654 487.814 28.4822C487.789 28.5053 487.688 28.4951 487.65 28.4996C487.518 28.5151 487.387 28.5381 487.257 28.5688C487.019 28.6253 486.786 28.7084 486.567 28.8171C485.71 29.2408 485.098 30.0352 484.798 30.929C484.483 31.8671 484.489 32.9418 484.865 33.8624C484.926 34.0111 484.998 34.1554 485.083 34.2919C485.135 34.3758 485.152 34.376 485.118 34.4639C485.08 34.5617 485.011 34.6568 484.966 34.7524C484.82 35.0643 484.718 35.3952 484.654 35.7331C484.548 36.2874 484.495 36.8699 484.6 37.4284C484.648 37.6877 484.733 37.9413 484.862 38.1722C484.927 38.29 485.004 38.4017 485.091 38.505C485.136 38.5587 485.184 38.6099 485.234 38.659C485.263 38.6871 485.3 38.7116 485.325 38.7429C485.384 38.8193 485.397 38.7565 485.366 38.8686C485.323 39.0254 485.226 39.1801 485.166 39.3326C485.105 39.4898 485.05 39.6492 484.999 39.8101C484.896 40.136 484.81 40.4678 484.755 40.8053C484.651 41.4532 484.669 42.1436 484.976 42.7383C485.107 42.9926 485.295 43.2158 485.523 43.3893C485.635 43.4742 485.755 43.5474 485.882 43.6076C485.947 43.6385 486.031 43.6518 486.06 43.7148C486.092 43.7825 486.045 43.9171 486.034 43.9928C485.94 44.6519 485.892 45.3438 486.088 45.9896C486.269 46.5844 486.666 47.1096 487.182 47.4573C488.182 48.1319 489.531 48.0938 490.583 47.5538C490.857 47.4131 491.113 47.2383 491.342 47.0321C491.924 47.8161 493.123 47.7913 493.974 47.5679C495.034 47.2896 495.885 46.5522 496.375 45.5834C497.046 46.3995 498.453 46.1347 498.918 45.2494C499.031 45.0327 499.099 44.7939 499.132 44.5523C499.15 44.4252 499.138 44.297 499.152 44.1709C499.168 44.0103 499.276 43.8542 499.337 43.6988C499.457 43.3963 499.532 43.0839 499.535 42.7577C499.537 42.5874 499.515 42.4214 499.499 42.2524C499.484 42.1003 499.527 41.9586 499.551 41.8085C499.279 41.8533 498.947 41.78 498.691 41.7011C498.44 41.6237 498.204 41.4199 498.027 41.2338C497.615 40.8015 497.363 40.2349 497.191 39.6709C496.813 38.4332 496.968 36.9481 498.213 36.2688C498.793 35.9523 500.53 35.9534 501.221 36.1098C501.947 36.2742 502.771 37.8769 502.811 38.0275C502.836 38.1207 502.824 38.2361 502.909 38.2983C503.097 38.4348 503.408 38.1978 503.547 38.0808C503.786 37.8789 503.957 37.6103 504.105 37.338C504.428 36.7447 504.688 36.1085 504.871 35.4591C505.013 34.9584 505.103 34.4421 505.288 33.9541C505.473 33.4686 505.763 33.0346 506.214 32.7596C506.705 32.4604 507.268 32.3028 507.807 32.1148C508.341 31.9284 508.866 31.7007 509.28 31.3053C509.371 31.2183 509.46 31.1259 509.533 31.0236C509.591 30.9427 509.648 30.788 509.736 30.7368C509.873 30.6571 510.073 30.8644 510.192 30.9396C510.777 31.311 511.264 31.8289 511.658 32.3947C512.049 32.9574 512.37 33.4988 512.631 34.1272C512.824 34.5932 512.945 35.19 513.286 35.5719C513.438 35.7424 514.567 35.8456 514.933 35.6967C515.299 35.5479 515.709 35.1613 515.831 34.919C515.957 34.671 515.987 34.3986 515.933 34.1272C515.902 33.9675 515.837 33.8183 515.802 33.6614C515.772 33.5297 515.745 33.4051 515.681 33.2844C515.56 33.0557 515.352 32.8912 515.102 32.8225C515.362 32.5822 515.578 32.2947 515.728 31.9734C515.883 31.6396 516.014 31.2336 516.052 30.8672C516.082 30.5696 516.035 30.2612 515.872 30.0055C515.701 29.7372 515.399 29.5621 515.137 29.3948C515.537 29.0817 515.879 28.7009 516.161 28.2794C516.708 27.4596 517.047 26.4263 516.769 25.449Z" fill="#191847"/>
</g>
<g id="Bottom/Standing/Skinny-Jeans-Walk">
<path id="Leg_11" fill-rule="evenodd" clip-rule="evenodd" d="M491.633 97.1235L512.924 153.461L527.847 194.985H536.357L515.843 97.1235L491.633 97.1235Z" fill="#2535AE"/>
<path id="Leg_12" fill-rule="evenodd" clip-rule="evenodd" d="M486.371 97.1235C486.139 116.454 486.306 142.48 485.767 143.684C485.408 144.488 474.226 153.64 452.222 171.143L456.608 178.601C482.732 161.754 496.461 152.209 497.797 149.964C499.8 146.598 509.865 115.617 515.102 97.1235H486.371Z" fill="#2A3BD8"/>
<g id="Accessories/Shoe/Flat-Pointy">
<path id="Shoe_3" fill-rule="evenodd" clip-rule="evenodd" d="M444.506 176.161L451.914 170.523L457.891 177.647C458.351 183.017 460.129 189.04 463.226 195.715L461.869 196.853L451.053 183.963L448.031 178.984L447.352 179.554L444.506 176.161Z" fill="#191847"/>
</g>
<g id="Accessories/Shoe/Flat-Pointy_2">
<path id="Shoe_4" fill-rule="evenodd" clip-rule="evenodd" d="M527.058 202.955L527.5 193.656H536.799C541.209 196.756 546.965 199.265 554.069 201.184V202.955H537.242L531.486 202.07V202.955H527.058Z" fill="#191847"/>
</g>
</g>
<g id="Body/Long-Sleeve">
<path id="Skin_6" fill-rule="evenodd" clip-rule="evenodd" d="M529.713 79.5429L547.197 77.158C550.694 75.2127 553.911 73.8957 556.849 73.2072C557.676 73.183 558.991 73.4835 557.032 75.1167C555.073 76.7498 553.085 78.5564 553.434 79.428C553.783 80.2996 555.605 79.9753 555.907 81.3159C556.108 82.2096 553.151 82.3548 547.036 81.7516L532.85 87.3758L529.713 79.5429ZM474.791 83.5897L484.488 83.626C473.855 107.553 468.311 120.081 467.856 121.209C466.831 123.748 469 127.616 469.927 129.694C466.907 131.045 467.229 126.041 463.419 127.813C459.942 129.431 457.297 132.362 453.279 129.883C452.785 129.578 452.244 128.431 453.552 127.534C456.81 125.3 461.505 121.39 462.139 120.103C463.004 118.348 467.222 106.177 474.791 83.5897Z" fill="#997659"/>
<path id="Clothes-Back_3" fill-rule="evenodd" clip-rule="evenodd" d="M501.351 52.8366L508.943 53.3423C510.812 70.2583 520.997 80.943 543.799 77.3258L546.829 99.1098C525.516 101.864 506.825 93.3316 502.995 70.2295C502.003 64.2491 501.22 58.0254 501.351 52.8366Z" fill="#AFB9C5"/>
<path id="Clothes" fill-rule="evenodd" clip-rule="evenodd" d="M497.605 50.6296L509.108 53.264C509.108 73.0485 515.41 85.6712 518.643 100.217H487.577C487.139 105.244 486.87 110.41 486.73 115.716H463.469C468.74 87.6699 479.866 65.9721 496.846 50.6225H497.599L497.605 50.6296Z" fill="#C5CFD6"/>
<path id="Shade_4" fill-rule="evenodd" clip-rule="evenodd" d="M492.478 71.9923C491.678 84.3207 492.148 93.7291 493.891 100.217H487.577C488.444 90.2603 489.973 80.8519 492.478 71.9923Z" fill="black" fill-opacity="0.1"/>
</g>
</g>
</g>
</g>
</g>
</g>
<defs>
<filter id="filter0_dd_2049_1675" x="33.0993" y="177.592" width="506.771" height="51.5914" filterUnits="userSpaceOnUse" color-interpolation-filters="sRGB">
<feFlood flood-opacity="0" result="BackgroundImageFix"/>
<feColorMatrix in="SourceAlpha" type="matrix" values="0 0 0 0 0 0 0 0 0 0 0 0 0 0 0 0 0 0 127 0" result="hardAlpha"/>
<feOffset dy="4.57138"/>
<feGaussianBlur stdDeviation="1.30611"/>
<feComposite in2="hardAlpha" operator="out"/>
<feColorMatrix type="matrix" values="0 0 0 0 0 0 0 0 0 0 0 0 0 0 0 0 0 0 0.24 0"/>
<feBlend mode="normal" in2="BackgroundImageFix" result="effect1_dropShadow_2049_1675"/>
<feColorMatrix in="SourceAlpha" type="matrix" values="0 0 0 0 0 0 0 0 0 0 0 0 0 0 0 0 0 0 127 0" result="hardAlpha"/>
<feOffset dy="2.61222"/>
<feGaussianBlur stdDeviation="1.30611"/>
<feComposite in2="hardAlpha" operator="out"/>
<feColorMatrix type="matrix" values="0 0 0 0 0 0 0 0 0 0 0 0 0 0 0 0 0 0 0.25 0"/>
<feBlend mode="normal" in2="effect1_dropShadow_2049_1675" result="effect2_dropShadow_2049_1675"/>
<feBlend mode="normal" in="SourceGraphic" in2="effect2_dropShadow_2049_1675" result="shape"/>
</filter>
</defs>
</svg>
