<svg width="287" height="269" viewBox="0 0 287 269" fill="none" xmlns="http://www.w3.org/2000/svg">
<g opacity="0.22" filter="url(#filter0_dd_2050_2292)">
<ellipse cx="143.745" cy="251.559" rx="141.755" ry="12.5513" fill="#D9D9D9"/>
</g>
<rect x="184.588" y="55.9557" width="10.2896" height="21.3509" rx="1.37194" fill="#D9D9D9"/>
<rect x="185.36" y="57.5848" width="8.74614" height="17.3208" rx="0.342986" fill="#BEBEBE"/>
<circle cx="189.733" cy="76.1918" r="0.685921" fill="#BEBEBE"/>
<g clip-path="url(#clip0_2050_2292)">
<path d="M189.671 66.9676C191.074 66.9676 192.212 65.8299 192.212 64.4265C192.212 63.0231 191.074 61.8854 189.671 61.8854C188.268 61.8854 187.13 63.0231 187.13 64.4265C187.13 65.8299 188.268 66.9676 189.671 66.9676Z" fill="#F2F2F2"/>
<path d="M189.671 62.5567C189.75 62.5567 189.815 62.4923 189.815 62.4128C189.815 62.3334 189.75 62.269 189.671 62.269C189.591 62.269 189.527 62.3334 189.527 62.4128C189.527 62.4923 189.591 62.5567 189.671 62.5567Z" fill="black" fill-opacity="0.1"/>
<path d="M187.657 64.5704C187.737 64.5704 187.801 64.506 187.801 64.4265C187.801 64.3471 187.737 64.2827 187.657 64.2827C187.578 64.2827 187.513 64.3471 187.513 64.4265C187.513 64.506 187.578 64.5704 187.657 64.5704Z" fill="black" fill-opacity="0.1"/>
<path d="M191.685 64.5706C191.764 64.5706 191.829 64.5062 191.829 64.4267C191.829 64.3473 191.764 64.2829 191.685 64.2829C191.605 64.2829 191.541 64.3473 191.541 64.4267C191.541 64.5062 191.605 64.5706 191.685 64.5706Z" fill="black" fill-opacity="0.1"/>
<path d="M189.671 66.5844C189.751 66.5844 189.815 66.52 189.815 66.4406C189.815 66.3611 189.751 66.2967 189.671 66.2967C189.592 66.2967 189.527 66.3611 189.527 66.4406C189.527 66.52 189.592 66.5844 189.671 66.5844Z" fill="black" fill-opacity="0.1"/>
<path fill-rule="evenodd" clip-rule="evenodd" d="M189.671 62.7005L189.767 64.3785H189.575L189.671 62.7005Z" fill="#AFB9C5"/>
<path fill-rule="evenodd" clip-rule="evenodd" d="M190.52 65.2753L189.638 64.5295L189.774 64.3939L190.52 65.2753Z" fill="#AFB9C5"/>
<path d="M189.671 64.6183C189.777 64.6183 189.863 64.5324 189.863 64.4265C189.863 64.3206 189.777 64.2347 189.671 64.2347C189.565 64.2347 189.479 64.3206 189.479 64.4265C189.479 64.5324 189.565 64.6183 189.671 64.6183Z" fill="#C5CFD6"/>
</g>
<path d="M187.13 69.6087L188.84 71.0336C188.887 71.0732 188.957 71.07 189.001 71.0263L192.212 67.815" stroke="#48C413" stroke-width="0.597949" stroke-linecap="round"/>
<g clip-path="url(#clip1_2050_2292)">
<path fill-rule="evenodd" clip-rule="evenodd" d="M107.591 28.3271C104.444 24.6331 102.314 20.106 102.67 15.0332C103.695 0.417178 124.041 3.63252 127.999 11.0094C131.957 18.3863 131.486 37.0985 126.371 38.417C124.332 38.9428 119.986 37.6548 115.563 34.989L118.339 54.6285H101.948L107.591 28.3271Z" fill="#B28B67"/>
<path fill-rule="evenodd" clip-rule="evenodd" d="M106.332 31.6173C104.274 22.4647 98.4135 16.2256 99.3086 12.1348C99.9053 9.40759 101.496 7.71163 104.08 7.04693C105.417 1.64005 109.727 -0.659704 117.012 0.147662C127.939 1.35871 134.608 5.89654 131.728 15.8817C129.08 15.8817 125.884 14.9243 121.465 16.5647C120.062 17.0852 119.059 18.6993 118.456 21.4071H116.459C114.52 18.1937 112.609 17.0129 110.725 17.8646C108.841 18.7164 108.413 20.7852 109.44 24.0711L108.456 31.6173H106.332Z" fill="#191847"/>
</g>
<g clip-path="url(#clip2_2050_2292)">
<path fill-rule="evenodd" clip-rule="evenodd" d="M58.9205 167.32H137.463C143.498 167.32 148.391 172.212 148.391 178.247V241.081C148.391 247.116 143.498 252.009 137.463 252.009H58.9205C52.8854 252.009 47.9929 247.116 47.9929 241.081V178.247C47.9929 172.212 52.8854 167.32 58.9205 167.32ZM69.8482 186.443C68.3394 186.443 67.1163 187.666 67.1163 189.175V230.153C67.1163 231.662 68.3394 232.885 69.8482 232.885H126.535C128.044 232.885 129.267 231.662 129.267 230.153V189.175C129.267 187.666 128.044 186.443 126.535 186.443H69.8482Z" fill="#C5CFD6"/>
</g>
<path fill-rule="evenodd" clip-rule="evenodd" d="M179.093 152.811C184.718 149.433 194.157 153.773 194.15 158.604C194.131 173.059 180.939 241.184 180.25 245.491C179.562 249.797 172.183 250.935 171.754 245.505C171.07 236.865 169.8 206.955 171.071 193.111C171.595 187.396 172.16 181.954 172.716 177.098C165.794 189.599 155.089 207.496 140.6 230.791L132.735 227.198C138.911 206.848 143.976 192.481 147.929 184.098C154.697 169.744 161.043 157.452 163.714 153.122C167.915 146.311 175.229 148.687 179.093 152.811Z" fill="#B28B67"/>
<path fill-rule="evenodd" clip-rule="evenodd" d="M133.297 215.897L160.293 151.944C166.76 141.541 184.893 154.061 182.688 160.095C177.68 173.794 152.215 218.143 150.723 222.224L133.297 215.897Z" fill="#2535AE"/>
<path fill-rule="evenodd" clip-rule="evenodd" d="M131.797 223.165C130.116 224.549 129.022 225.68 128.516 226.557C127.9 227.623 127.179 229.282 126.353 231.534C127.59 232.248 138.71 238.668 159.713 250.794C162.235 248.429 162.628 246.593 160.892 245.286C159.156 243.979 157.723 242.877 156.594 241.979L145.08 226.115C144.858 225.81 144.431 225.742 144.126 225.963C144.121 225.967 144.115 225.971 144.11 225.975L141.718 227.817C139.523 227.626 137.885 227.218 136.804 226.594C135.926 226.087 134.917 225.032 133.779 223.429C133.343 222.813 132.49 222.669 131.875 223.105C131.848 223.124 131.823 223.144 131.797 223.165Z" fill="#E4E4E4"/>
<path fill-rule="evenodd" clip-rule="evenodd" d="M170.026 242.039C169.262 244.078 168.88 245.604 168.88 246.617C168.88 247.849 169.085 249.646 169.495 252.009C170.924 252.009 183.765 252.009 208.017 252.009C209.018 248.699 208.44 246.913 206.283 246.649C204.126 246.385 202.335 246.147 200.908 245.934L183.004 237.952C182.659 237.799 182.256 237.954 182.102 238.298C182.099 238.304 182.097 238.31 182.094 238.316L180.943 241.108C178.947 242.039 177.324 242.505 176.076 242.505C175.062 242.505 173.661 242.095 171.874 241.276C171.189 240.962 170.378 241.263 170.063 241.949C170.05 241.978 170.037 242.008 170.026 242.039Z" fill="#E4E4E4"/>
<path fill-rule="evenodd" clip-rule="evenodd" d="M196.042 163.518C196.042 181.662 187.425 223.986 187.42 227.982L168.88 227.996C171.594 190.23 172.556 171.144 171.767 170.737C170.583 170.127 123.241 175.464 109.042 175.464C88.5671 175.464 80.0972 162.553 79.4099 138.635H119.969C128.228 139.518 171.304 148.207 187.301 151.193C194.15 152.472 196.042 158.519 196.042 163.518Z" fill="#2A3BD8"/>
<path fill-rule="evenodd" clip-rule="evenodd" d="M131.599 74.2301L155.305 61.2465C159.247 56.5651 163.131 52.9294 166.957 50.3393C168.126 49.8512 170.171 49.5558 168.259 52.9494C166.347 56.3431 164.488 59.9986 165.462 61.0441C166.437 62.0896 168.866 60.6291 170.028 62.3662C170.802 63.5243 166.653 65.3537 157.578 67.8545L140.353 83.6261L131.599 74.2301ZM168.727 85.1848L179.14 79.4644C180.601 73.9048 182.348 71.1076 184.38 71.0727C185.941 70.3464 183.222 77.3715 186.181 76.7623C189.14 76.1531 196.363 70.7814 197.607 71.8721C199.449 73.4856 197.807 78.4401 195.873 80.9048C192.258 85.5111 189.264 87.0864 181.866 89.1491C177.998 90.2277 173.816 92.3895 169.32 95.6346L168.727 85.1848Z" fill="#997659"/>
<path fill-rule="evenodd" clip-rule="evenodd" d="M120.054 71.3377C128.357 71.25 139.43 69.4963 151.244 61.9969L155.884 72.344C147.735 80.4315 136.276 87.0764 126.257 86.7951C118.361 86.5733 114.326 77.0227 120.054 71.3377Z" fill="#2026A2"/>
<path fill-rule="evenodd" clip-rule="evenodd" d="M131.235 87.9313C140.05 90.1297 154.832 87.5372 175.581 80.1537C180.728 90.8014 183.107 98.3924 182.719 102.927C164.919 112.225 149.663 116.37 137.094 116.644C137.493 124.102 136.585 131.198 133.536 137.683C127.267 151.013 90.557 138.668 78.2141 141.097C70.4845 115.995 85.4298 105.793 85.4418 89.7312C85.455 72.1415 99.5787 45.0669 101.657 45.0669L120.607 45.0669C121.653 58.5003 126.915 73.3052 131.235 87.9313Z" fill="#2535AE"/>
<defs>
<filter id="filter0_dd_2050_2292" x="0.513128" y="239.008" width="286.464" height="29.1632" filterUnits="userSpaceOnUse" color-interpolation-filters="sRGB">
<feFlood flood-opacity="0" result="BackgroundImageFix"/>
<feColorMatrix in="SourceAlpha" type="matrix" values="0 0 0 0 0 0 0 0 0 0 0 0 0 0 0 0 0 0 127 0" result="hardAlpha"/>
<feOffset dy="2.58408"/>
<feGaussianBlur stdDeviation="0.738309"/>
<feComposite in2="hardAlpha" operator="out"/>
<feColorMatrix type="matrix" values="0 0 0 0 0 0 0 0 0 0 0 0 0 0 0 0 0 0 0.24 0"/>
<feBlend mode="normal" in2="BackgroundImageFix" result="effect1_dropShadow_2050_2292"/>
<feColorMatrix in="SourceAlpha" type="matrix" values="0 0 0 0 0 0 0 0 0 0 0 0 0 0 0 0 0 0 127 0" result="hardAlpha"/>
<feOffset dy="1.47662"/>
<feGaussianBlur stdDeviation="0.738309"/>
<feComposite in2="hardAlpha" operator="out"/>
<feColorMatrix type="matrix" values="0 0 0 0 0 0 0 0 0 0 0 0 0 0 0 0 0 0 0.25 0"/>
<feBlend mode="normal" in2="effect1_dropShadow_2050_2292" result="effect2_dropShadow_2050_2292"/>
<feBlend mode="normal" in="SourceGraphic" in2="effect2_dropShadow_2050_2292" result="shape"/>
</filter>
<clipPath id="clip0_2050_2292">
<rect width="5.08219" height="5.08219" fill="white" transform="translate(187.13 61.8854)"/>
</clipPath>
<clipPath id="clip1_2050_2292">
<rect width="33.4659" height="54.6381" fill="white" transform="translate(99.2163 -0.00967979)"/>
</clipPath>
<clipPath id="clip2_2050_2292">
<rect width="100.398" height="84.6891" fill="white" transform="translate(47.9929 167.32)"/>
</clipPath>
</defs>
</svg>
