<svg width="333" height="236" viewBox="0 0 333 236" fill="none" xmlns="http://www.w3.org/2000/svg">
<g filter="url(#filter0_i_2050_2338)">
<path d="M114.816 195.181C114.816 178.606 114.816 67.2207 114.816 40.7004C114.816 22.2819 149.624 4.89799 149.624 8.87598V43.0209C149.624 43.0209 155.955 52.8107 162.221 52.9661C166.411 53.07 170.734 48.87 173.262 45.8959C174.797 44.0895 175.481 41.7549 175.481 39.3844V9.53899C175.481 9.17282 175.778 8.87598 176.144 8.87598H270.291C270.658 8.87598 270.954 9.17282 270.954 9.53899V39.4163C270.954 41.7669 271.627 44.0823 273.14 45.8813C275.596 48.8017 279.779 52.916 283.883 52.9661C290.356 53.045 297.143 43.0209 297.143 43.0209V8.87598C297.143 4.898 332.946 13.5171 332.946 40.7004V195.181C332.946 212.575 308.083 226.674 301.453 226.674C239.441 226.674 154.265 228 142.662 226.674C126.351 224.81 114.816 205.127 114.816 195.181Z" fill="#F2F2F2"/>
</g>
<g filter="url(#filter1_i_2050_2338)">
<path d="M134.707 69.5414H312.082C312.806 69.5414 313.396 70.1048 313.407 70.829C313.588 82.9732 314.938 177.23 313.387 190.872C312.239 200.978 300.79 208.442 294.16 208.442H155.26C144 208.442 134.707 199.48 134.707 188.22V69.5414Z" fill="#F6F7F9"/>
</g>
<g filter="url(#filter2_i_2050_2338)">
<rect x="151.944" y="2.67029e-05" width="21.2163" height="47.0736" rx="10.6081" fill="#F2F2F2"/>
</g>
<g filter="url(#filter3_i_2050_2338)">
<rect x="273.275" y="2.67029e-05" width="21.2163" height="47.0736" rx="10.6081" fill="#F2F2F2"/>
</g>
<g filter="url(#filter4_i_2050_2338)">
<path d="M222.945 138.77L194.94 138.876V132.511L207.882 121.744C212.072 118.296 213.822 115.856 213.822 112.621C213.822 108.643 211.86 106.521 208.359 106.521C204.699 106.521 202.578 109.014 202.578 113.417H194.038C194.038 104.612 199.661 98.8834 208.306 98.8834C217.27 98.8834 222.627 103.71 222.627 112.091C222.627 117.448 219.392 121.797 214.512 125.881L208.624 130.814H222.945V138.77ZM238.976 120.418H233.248V114.902C233.354 114.796 233.46 114.743 233.566 114.637L242.106 107.158H227.307V99.626H252.873V106.468L244.599 113.735C249.903 115.326 254.199 119.569 254.199 126.252C254.199 134.527 247.516 139.566 239.56 139.566C231.922 139.566 225.504 134.898 225.504 126.04H233.99C233.99 129.912 236.324 131.981 239.772 131.981C243.113 131.981 245.394 129.7 245.394 126.199C245.394 123.07 243.591 120.418 238.976 120.418Z" fill="#2A3BD8"/>
</g>
<g filter="url(#filter5_i_2050_2338)">
<path d="M196.098 188.481H191.102V164.931H196.098L203.099 182.498L210.133 164.931H215.193V188.481H210.196V183.548C210.196 178.456 210.196 177.343 210.451 175.592L205.454 188.481H200.744L195.78 175.592C196.066 177.343 196.098 179.316 196.098 181.893V188.481ZM223.312 188.481H217.934L226.335 164.931H231.364L239.733 188.481H234.26L232.605 183.516H224.999L223.312 188.481ZM228.181 174.16L226.495 179.188H231.141L229.454 174.16C229.2 173.364 228.913 172.442 228.818 171.869C228.722 172.41 228.468 173.301 228.181 174.16ZM245.75 179.538L237.794 164.931H243.554L247.5 172.569C247.882 173.301 248.137 173.874 248.391 174.478C248.678 173.905 248.932 173.301 249.314 172.537L253.26 164.931H258.861L250.905 179.538V188.481H245.75V179.538Z" fill="#2A3BD8"/>
</g>
<path d="M83.497 235.647C129.611 235.647 166.994 198.264 166.994 152.15C166.994 106.036 129.611 68.6526 83.497 68.6526C37.3829 68.6526 0 106.036 0 152.15C0 198.264 37.3829 235.647 83.497 235.647Z" fill="#F2F2F2"/>
<path d="M83.4997 90.7095C86.1099 90.7095 88.2259 88.5935 88.2259 85.9832C88.2259 83.373 86.1099 81.257 83.4997 81.257C80.8895 81.257 78.7734 83.373 78.7734 85.9832C78.7734 88.5935 80.8895 90.7095 83.4997 90.7095Z" fill="black" fill-opacity="0.1"/>
<path d="M17.3288 156.877C19.939 156.877 22.055 154.761 22.055 152.151C22.055 149.54 19.939 147.424 17.3288 147.424C14.7186 147.424 12.6025 149.54 12.6025 152.151C12.6025 154.761 14.7186 156.877 17.3288 156.877Z" fill="black" fill-opacity="0.1"/>
<path d="M149.66 156.877C152.271 156.877 154.387 154.761 154.387 152.151C154.387 149.54 152.271 147.424 149.66 147.424C147.05 147.424 144.934 149.54 144.934 152.151C144.934 154.761 147.05 156.877 149.66 156.877Z" fill="black" fill-opacity="0.1"/>
<path d="M83.4997 223.045C86.1099 223.045 88.2259 220.929 88.2259 218.318C88.2259 215.708 86.1099 213.592 83.4997 213.592C80.8895 213.592 78.7734 215.708 78.7734 218.318C78.7734 220.929 80.8895 223.045 83.4997 223.045Z" fill="black" fill-opacity="0.1"/>
<path fill-rule="evenodd" clip-rule="evenodd" d="M83.497 95.4341L86.6479 150.574H80.3462L83.497 95.4341Z" fill="#2A3BD8"/>
<path fill-rule="evenodd" clip-rule="evenodd" d="M111.38 180.032L82.4163 155.524L86.8722 151.068L111.38 180.032Z" fill="#2A3BD8"/>
<path d="M83.4984 158.451C86.9788 158.451 89.8001 155.63 89.8001 152.149C89.8001 148.669 86.9788 145.848 83.4984 145.848C80.0181 145.848 77.1968 148.669 77.1968 152.149C77.1968 155.63 80.0181 158.451 83.4984 158.451Z" fill="#C5CFD6"/>
<defs>
<filter id="filter0_i_2050_2338" x="112.827" y="7.9561" width="220.119" height="221.96" filterUnits="userSpaceOnUse" color-interpolation-filters="sRGB">
<feFlood flood-opacity="0" result="BackgroundImageFix"/>
<feBlend mode="normal" in="SourceGraphic" in2="BackgroundImageFix" result="shape"/>
<feColorMatrix in="SourceAlpha" type="matrix" values="0 0 0 0 0 0 0 0 0 0 0 0 0 0 0 0 0 0 127 0" result="hardAlpha"/>
<feOffset dx="-1.98903" dy="3.97805"/>
<feGaussianBlur stdDeviation="1.32602"/>
<feComposite in2="hardAlpha" operator="arithmetic" k2="-1" k3="1"/>
<feColorMatrix type="matrix" values="0 0 0 0 1 0 0 0 0 1 0 0 0 0 1 0 0 0 0.25 0"/>
<feBlend mode="normal" in2="shape" result="effect1_innerShadow_2050_2338"/>
</filter>
<filter id="filter1_i_2050_2338" x="134.707" y="69.5414" width="184.589" height="144.072" filterUnits="userSpaceOnUse" color-interpolation-filters="sRGB">
<feFlood flood-opacity="0" result="BackgroundImageFix"/>
<feBlend mode="normal" in="SourceGraphic" in2="BackgroundImageFix" result="shape"/>
<feColorMatrix in="SourceAlpha" type="matrix" values="0 0 0 0 0 0 0 0 0 0 0 0 0 0 0 0 0 0 127 0" result="hardAlpha"/>
<feOffset dx="6.63009" dy="5.96708"/>
<feGaussianBlur stdDeviation="2.58573"/>
<feComposite in2="hardAlpha" operator="arithmetic" k2="-1" k3="1"/>
<feColorMatrix type="matrix" values="0 0 0 0 0 0 0 0 0 0 0 0 0 0 0 0 0 0 0.15 0"/>
<feBlend mode="normal" in2="shape" result="effect1_innerShadow_2050_2338"/>
</filter>
<filter id="filter2_i_2050_2338" x="151.944" y="2.67029e-05" width="21.2163" height="48.3996" filterUnits="userSpaceOnUse" color-interpolation-filters="sRGB">
<feFlood flood-opacity="0" result="BackgroundImageFix"/>
<feBlend mode="normal" in="SourceGraphic" in2="BackgroundImageFix" result="shape"/>
<feColorMatrix in="SourceAlpha" type="matrix" values="0 0 0 0 0 0 0 0 0 0 0 0 0 0 0 0 0 0 127 0" result="hardAlpha"/>
<feOffset dy="1.32602"/>
<feGaussianBlur stdDeviation="1.32602"/>
<feComposite in2="hardAlpha" operator="arithmetic" k2="-1" k3="1"/>
<feColorMatrix type="matrix" values="0 0 0 0 0 0 0 0 0 0 0 0 0 0 0 0 0 0 0.25 0"/>
<feBlend mode="normal" in2="shape" result="effect1_innerShadow_2050_2338"/>
</filter>
<filter id="filter3_i_2050_2338" x="273.275" y="2.67029e-05" width="21.2163" height="48.3996" filterUnits="userSpaceOnUse" color-interpolation-filters="sRGB">
<feFlood flood-opacity="0" result="BackgroundImageFix"/>
<feBlend mode="normal" in="SourceGraphic" in2="BackgroundImageFix" result="shape"/>
<feColorMatrix in="SourceAlpha" type="matrix" values="0 0 0 0 0 0 0 0 0 0 0 0 0 0 0 0 0 0 127 0" result="hardAlpha"/>
<feOffset dy="1.32602"/>
<feGaussianBlur stdDeviation="1.32602"/>
<feComposite in2="hardAlpha" operator="arithmetic" k2="-1" k3="1"/>
<feColorMatrix type="matrix" values="0 0 0 0 0 0 0 0 0 0 0 0 0 0 0 0 0 0 0.25 0"/>
<feBlend mode="normal" in2="shape" result="effect1_innerShadow_2050_2338"/>
</filter>
<filter id="filter4_i_2050_2338" x="194.038" y="98.2204" width="60.1606" height="41.3452" filterUnits="userSpaceOnUse" color-interpolation-filters="sRGB">
<feFlood flood-opacity="0" result="BackgroundImageFix"/>
<feBlend mode="normal" in="SourceGraphic" in2="BackgroundImageFix" result="shape"/>
<feColorMatrix in="SourceAlpha" type="matrix" values="0 0 0 0 0 0 0 0 0 0 0 0 0 0 0 0 0 0 127 0" result="hardAlpha"/>
<feOffset dy="-0.663009"/>
<feGaussianBlur stdDeviation="1.32602"/>
<feComposite in2="hardAlpha" operator="arithmetic" k2="-1" k3="1"/>
<feColorMatrix type="matrix" values="0 0 0 0 0 0 0 0 0 0 0 0 0 0 0 0 0 0 0.25 0"/>
<feBlend mode="normal" in2="shape" result="effect1_innerShadow_2050_2338"/>
</filter>
<filter id="filter5_i_2050_2338" x="191.102" y="164.268" width="67.7598" height="24.2131" filterUnits="userSpaceOnUse" color-interpolation-filters="sRGB">
<feFlood flood-opacity="0" result="BackgroundImageFix"/>
<feBlend mode="normal" in="SourceGraphic" in2="BackgroundImageFix" result="shape"/>
<feColorMatrix in="SourceAlpha" type="matrix" values="0 0 0 0 0 0 0 0 0 0 0 0 0 0 0 0 0 0 127 0" result="hardAlpha"/>
<feOffset dy="-0.663009"/>
<feGaussianBlur stdDeviation="1.32602"/>
<feComposite in2="hardAlpha" operator="arithmetic" k2="-1" k3="1"/>
<feColorMatrix type="matrix" values="0 0 0 0 0 0 0 0 0 0 0 0 0 0 0 0 0 0 0.25 0"/>
<feBlend mode="normal" in2="shape" result="effect1_innerShadow_2050_2338"/>
</filter>
</defs>
</svg>
