<svg width="32" height="32" viewBox="0 0 32 32" fill="none" xmlns="http://www.w3.org/2000/svg">
<path d="M31.1633 15.162H20.7714C20.6301 15.162 20.5012 15.1333 20.3812 15.0908C20.4737 15.0032 20.5813 14.9269 20.7101 14.8706L30.2478 10.7434C30.6718 10.5595 30.8669 10.068 30.683 9.64401C30.5004 9.22003 30.0077 9.02493 29.5837 9.20878L20.0472 13.336C19.9772 13.3661 19.9071 13.3761 19.8371 13.3911C19.8771 13.3323 19.9122 13.2698 19.9659 13.216L27.3137 5.8682C27.6401 5.54177 27.6401 5.01149 27.3137 4.68631C26.9873 4.35988 26.457 4.35988 26.1306 4.68631L18.7828 12.0341C18.6827 12.1341 18.5727 12.2054 18.4564 12.2592C18.4601 12.1316 18.4814 12.0028 18.5339 11.8702L22.3597 2.2087C22.5298 1.77971 22.3197 1.29321 21.8907 1.12311C21.4618 0.953019 20.9752 1.16314 20.8051 1.59337L16.9793 11.2562C16.9518 11.3275 16.908 11.3825 16.8692 11.4438C16.8555 11.3725 16.8367 11.3049 16.8367 11.2287V0.836701C16.8367 0.373947 16.4628 0 16 0C15.5373 0 15.1633 0.373947 15.1633 0.836701V11.2287C15.1633 11.37 15.1345 11.4988 15.092 11.6188C15.0057 11.5263 14.9282 11.4188 14.8719 11.2899L10.7446 1.75221C10.5608 1.32823 10.0693 1.13312 9.64528 1.31697C9.2213 1.50083 9.02619 1.99357 9.21004 2.4163L13.3373 11.9528C13.3673 12.0241 13.3773 12.0929 13.3923 12.1629C13.3336 12.1229 13.271 12.0879 13.2172 12.0341L5.86947 4.68631C5.54304 4.35988 5.01274 4.35988 4.68756 4.68631C4.36114 5.01274 4.36114 5.54177 4.68756 5.8682L12.0353 13.216C12.1354 13.316 12.2067 13.4261 12.2605 13.5424C12.1329 13.5387 12.0028 13.5174 11.8715 13.4649L2.20997 9.639C1.78098 9.46891 1.29446 9.67903 1.12436 10.1093C0.954271 10.5382 1.16439 11.0248 1.59462 11.1949L11.2562 15.0195C11.3275 15.0482 11.3837 15.0908 11.4438 15.1283C11.3725 15.142 11.3049 15.162 11.2287 15.162H0.836716C0.375213 15.162 0 15.536 0 15.9987C0 16.4615 0.373963 16.8354 0.836716 16.8354H11.2287C11.37 16.8354 11.4988 16.863 11.6176 16.9067C11.5251 16.9943 11.4175 17.0706 11.2887 17.1269L1.75221 21.2541C1.32823 21.438 1.13312 21.9295 1.31697 22.3535C1.50083 22.7775 1.99235 22.9726 2.41633 22.7887L11.9541 18.6615C12.0241 18.6314 12.0941 18.6227 12.1642 18.6064C12.1229 18.6665 12.0891 18.7277 12.0353 18.7828L4.68756 26.1305C4.36114 26.457 4.36114 26.986 4.68756 27.3137C5.01399 27.6401 5.54304 27.6401 5.86947 27.3137L13.2172 19.9659C13.3173 19.8659 13.4286 19.7946 13.5437 19.7408C13.5399 19.8671 13.5187 19.9972 13.4661 20.1285L9.64029 29.7913C9.47019 30.2203 9.68029 30.7068 10.1105 30.8769C10.5395 31.047 11.026 30.8369 11.1961 30.4066L15.0207 20.7451C15.0495 20.6738 15.092 20.6175 15.1308 20.5562C15.1445 20.6275 15.1633 20.6951 15.1633 20.7714V31.1633C15.1633 31.6248 15.5373 32 16 32C16.4628 32 16.8367 31.6248 16.8367 31.1633V20.7714C16.8367 20.63 16.8642 20.5012 16.908 20.3812C16.9943 20.4737 17.0719 20.5812 17.1281 20.7101L21.2554 30.2465C21.4392 30.6705 21.9308 30.8656 22.3547 30.6818C22.7787 30.4979 22.9738 30.0052 22.79 29.5824L18.6627 20.046C18.6327 19.9747 18.6227 19.9059 18.6077 19.8358C18.6677 19.8771 18.729 19.9109 18.7828 19.9647L26.1306 27.3124C26.457 27.6389 26.986 27.6389 27.3137 27.3124C27.6414 26.986 27.6401 26.4557 27.3137 26.1293L19.9659 18.7815C19.8659 18.6815 19.7946 18.5714 19.7408 18.4551C19.8684 18.4588 19.9972 18.4801 20.1298 18.5326L29.7913 22.3585C30.2203 22.5286 30.7068 22.3185 30.8769 21.8882C31.047 21.4592 30.8369 20.9727 30.4066 20.8026L20.7439 16.9768C20.6726 16.948 20.6163 16.9055 20.5563 16.868C20.6275 16.8542 20.6951 16.8354 20.7714 16.8354H31.1633C31.6248 16.8354 32 16.4615 32 15.9987C32 15.536 31.6261 15.162 31.1633 15.162Z" fill="#2B44FF"/>
</svg>
