<svg width="40" height="40" viewBox="0 0 40 40" fill="none" xmlns="http://www.w3.org/2000/svg">
<path d="M33.2155 17.8859C32.288 17.1272 31.2647 16.3758 30.1616 15.6455C30.4985 14.3649 30.7631 13.1245 30.9506 11.941C31.4833 8.53357 31.4129 5.60281 30.6067 3.46267C30.3609 2.81739 30.0434 2.2433 29.64 1.76049C29.2365 1.27767 28.7446 0.888947 28.1739 0.634467C27.6048 0.379379 26.9867 0.269162 26.3578 0.289258C25.729 0.309353 25.0892 0.454336 24.4439 0.700175C22.3108 1.52015 20.0752 3.41994 17.886 6.08488C17.1272 7.01229 16.3758 8.03569 15.6455 9.1388C14.3648 8.80181 13.1245 8.53723 11.9411 8.34977C8.53359 7.81706 5.60281 7.8874 3.46267 8.69361C2.81739 8.93945 2.24329 9.25694 1.76048 9.66037C1.27766 10.0638 0.888951 10.5558 0.634471 11.1265C0.378773 11.6939 0.269197 12.3137 0.288683 12.9409C0.308778 13.5698 0.453749 14.2096 0.699589 14.8549C1.51956 16.988 3.41934 19.2236 6.08428 21.4128C7.01169 22.1715 8.0351 22.923 9.13821 23.6532C8.80122 24.9339 8.53663 26.1742 8.34917 27.3577C7.81646 30.7651 7.88742 33.6975 8.69301 35.8361C8.93885 36.4814 9.25636 37.0554 9.65979 37.5383C10.0632 38.0211 10.5552 38.4098 11.1258 38.6643C11.6949 38.9194 12.3131 39.0296 12.9413 39.0079C13.5702 38.9878 14.21 38.8428 14.8553 38.5969C16.9883 37.777 19.224 35.8772 21.4132 33.2123C22.1719 32.2849 22.9234 31.2615 23.6536 30.1584C24.9327 30.496 26.1746 30.7599 27.3581 30.9474C30.7656 31.4801 33.6963 31.4097 35.8365 30.6035C36.4817 30.3577 37.0558 30.0402 37.5386 29.6368C38.0215 29.2333 38.4102 28.7414 38.6653 28.1723C38.9204 27.6032 39.0306 26.9851 39.0089 26.3568C38.9888 25.728 38.8438 25.0881 38.598 24.4429C37.778 22.3098 35.8782 20.0742 33.2133 17.8849L33.2155 17.8859ZM19.0655 7.04936C21.1429 4.50383 23.2666 2.77109 24.9861 2.12333C25.5036 1.92617 25.9808 1.82485 26.4054 1.81122C26.8323 1.79859 27.2053 1.87046 27.5504 2.0225C27.8945 2.17674 28.197 2.40898 28.47 2.73664C28.7424 3.0627 28.9842 3.48637 29.1814 4.00387C29.8425 5.72006 29.9621 8.45832 29.4435 11.7013C29.2882 12.6859 29.0754 13.7163 28.8089 14.7836C27.0823 13.7276 25.1882 12.7262 23.1589 11.8166C21.1302 10.9086 19.1218 10.1593 17.1846 9.57307C17.8024 8.66461 18.4316 7.81947 19.0633 7.04837L19.0655 7.04936ZM28.3944 16.317C27.8109 18.3189 27.0421 20.4153 26.0919 22.535C25.1418 24.6547 24.0868 26.6242 22.9822 28.3912C20.9802 27.8077 18.8838 27.0389 16.7641 26.0887C14.6444 25.1386 12.675 24.0836 10.9079 22.979C11.492 20.9786 12.2602 18.8806 13.2104 16.7609C14.1606 14.6412 15.2155 12.6718 16.3202 10.9047C18.3205 11.4888 20.4185 12.257 22.5382 13.2072C24.6579 14.1574 26.6274 15.2123 28.3944 16.317ZM7.05036 20.2326C4.50484 18.1552 2.77209 16.0315 2.12432 14.3121C1.92717 13.7946 1.82583 13.3174 1.81221 12.8927C1.79957 12.4659 1.87146 12.0928 2.0241 11.7494C2.17994 11.4047 2.41061 11.1028 2.73765 10.8282C3.06371 10.5558 3.48736 10.3139 4.00486 10.1168C5.72105 9.45562 8.45932 9.33603 11.7023 9.8546C12.6869 10.0099 13.7189 10.2222 14.7846 10.4893C13.7286 12.2158 12.7272 14.11 11.8176 16.1392C10.9096 18.1679 10.1603 20.1764 9.57406 22.1135C8.66559 21.4957 7.82048 20.8666 7.04937 20.2348L7.05036 20.2326ZM20.2352 32.2472C18.1578 34.7927 16.0341 36.5254 14.3147 37.1732C13.7972 37.3704 13.32 37.4717 12.8953 37.4853C12.4685 37.498 12.0954 37.4261 11.7503 37.274C11.4062 37.1198 11.1038 36.8876 10.8308 36.5599C10.5584 36.2338 10.3149 35.8108 10.1193 35.2927C9.4582 33.5765 9.33865 30.8382 9.85721 27.5953C10.0125 26.6106 10.2248 25.5786 10.4919 24.5129C12.2184 25.569 14.1125 26.5703 16.1418 27.48C18.1705 28.388 20.1789 29.1373 22.1161 29.7235C21.4983 30.6319 20.8692 31.477 20.2374 32.2481L20.2352 32.2472ZM37.4863 26.4028C37.499 26.8297 37.4287 27.2021 37.275 27.5478C37.1208 27.8919 36.8879 28.1928 36.5609 28.4674C36.2354 28.7413 35.8112 28.9816 35.2937 29.1788C33.5775 29.8399 30.8392 29.9595 27.5963 29.4409C26.6116 29.2857 25.5812 29.0728 24.5155 28.8057C25.5716 27.0791 26.5729 25.185 27.4825 23.1557C28.3906 21.127 29.1399 19.1186 29.7261 17.1814C30.6345 17.7992 31.4797 18.4284 32.2508 19.0601C34.7963 21.1375 36.529 23.2612 37.1768 24.9806C37.374 25.4981 37.4753 25.9754 37.4889 26.4L37.4863 26.4028Z" fill="#2B44FF"/>
</svg>
